<?xml version="1.0" encoding="utf-8"?>
<!-- Generator: Adobe Illustrator 24.0.3, SVG Export Plug-In . SVG Version: 6.00 Build 0)  -->
<svg version="1.1" id="图层_1" xmlns="http://www.w3.org/2000/svg" xmlns:xlink="http://www.w3.org/1999/xlink" x="0px" y="0px"
	 viewBox="0 0 800 800" enable-background="new 0 0 800 800" xml:space="preserve">
<g id="主体1">
</g>
<g id="主体_1_">
	<path fill="#FFFFFF" d="M426.3,275.7c22-20.3,44.6-42.3,56.9-69.7v-23.6c0-5.6-0.3-11.2-0.8-16.8c-1.1-11.2-3.2-22.1-6.4-32.6
		c-5.1,8.3-10.5,16.4-16.2,24.3c-12.9,17.8-27,34.7-43.3,49.4v78.2C419.8,281.7,423,278.7,426.3,275.7z"/>
	<path fill="#FFFFFF" d="M425.8,313.4c-3.1,2.8-6.2,5.6-9.4,8.3v20c2.2-1.3,4.5-2.5,6.9-3.4c2-9.3,14.1-14.5,22.5-16.3
		c5.2-1.1,11.6-2,16.8-0.4c1.8,0.6,3.3,1.4,4.6,2.6c5.4-0.5,10.7-0.5,15.9,0.1v-67.6C466,277.4,445.7,295.4,425.8,313.4z"/>
	<path fill="#FFFFFF" d="M481.6,430.6c-6.8-1.5-24.3-10.5-26.6-12.2c-1.2,0.9-34.6,14.4-34.9,14.4c-1.2,0.7-2.4,1.4-3.6,2.1v64.3
		c1.8-1.2,3.7-2.4,5.5-3.6c15.1-10.1,29.5-21.2,43.4-32.8c6.1-5.1,12.2-10.4,17.8-16.1v-15.9C482.6,430.8,482.1,430.7,481.6,430.6z"
		/>
	<path fill="#FFFFFF" d="M427.5,594.2c1.5-1.1,3-2.2,4.4-3.4c0.3-0.3,2.7-2.1,3.1-2.5c12.2-9.7,24.1-20,35.1-31.1
		c4.1-4.1,8.1-8.3,11.9-12.7c0.4-0.4,0.7-0.9,1.1-1.3v-59.5c-20.6,17.4-42.9,34.3-66.7,48v70.5C420.2,599.6,423.9,597,427.5,594.2z"
		/>
	<path fill="#FFFFFF" d="M424.1,701c20.6-15,43.4-31,59.1-51.8v-66.1c-20.3,19.3-42.7,37.4-66.7,52.2v71.1
		C419.1,704.7,421.6,702.8,424.1,701z"/>
	<path fill="#FFFFFF" d="M438,724.8c-7,5.1-14.2,10-21.6,14.7v20.7c0,0.6,0,1.2,0.1,1.8c0.4,7,3.1,13.3,7.3,17.9
		c6,7.9,15.2,12.9,25.5,12.9s19.5-5,25.5-12.8c5.1-5.2,8.3-12.3,8.3-20.2v-70.1C468.9,702.6,453,713.9,438,724.8z"/>
	<path fill="#FFFFFF" d="M199.8,69.1c25.3,0.7,54.3,6,78,18.6c9.1-4.7,18.8-7.6,28.6-8.7c-2.7-6.5-5.9-12.7-10.2-19.5
		c-9.4-15.2-22.6-28.1-38.2-37.1c-22.7,8.9-43.6,23.1-61.4,42c-1.5,1.6-2.9,3.1-4.3,4.7C194.8,69.1,197.3,69.1,199.8,69.1z"/>
	<path fill="#FFFFFF" d="M156.4,159.9c21.9-13.7,47.8-24.3,73.9-23.5c4.1-7.7,9-14.9,14.5-21.6c2.4-2.9,5-5.7,7.6-8.3
		c-3.2-1.2-6.5-2.3-9.8-3.2c-6.6-1.9-13.4-3.4-20.2-4.6c-0.4-0.1-3.3-0.5-3.8-0.6c-1.6-0.2-3.2-0.4-4.7-0.5
		c-3.1-0.3-6.2-0.6-9.4-0.7c-6.4-0.3-12.8-0.4-19.2,0c-3.2,0.2-6.3,0.5-9.5,0.8c-0.2,0-0.3,0-0.4,0.1c-0.5,0.1-1,0.1-1.5,0.2
		c-1,0.2-1.9,0.3-2.9,0.5c-9.8,16.6-17,34.6-21.3,53.5c-1.1,4.7-2,9.5-2.7,14.3C150.1,164.1,153.2,162,156.4,159.9z"/>
	<path fill="#FFFFFF" d="M219.2,164.1c-14.8,1.8-29.2,8.4-42.1,15.7c-6.9,3.9-14,8.4-19.8,13.3c-4.3,3.7-8.3,7.6-11.5,11.5
		c2.8,17.4,16.9,30.6,33.9,30.6c13.8,0,25.7-8.8,31.2-21.4c0,0,0-0.1,0.1-0.1c2.1-4.2,3.1-8.7,3.1-13.5
		C214.1,188,215.9,175.8,219.2,164.1L219.2,164.1z"/>
	<path fill="#FFFFFF" d="M369.4,21c-17.6-6.2-36.3-9.4-55.3-9.4c-7.2,0-14.4,0.5-21.5,1.6c0.6,0.5,1.2,1.1,1.8,1.6
		c20.1,17.8,33.7,41,42.2,66.3C351,84.5,364.4,91.4,376,101C382.6,73.9,380.1,46.4,369.4,21z"/>
	<path fill="#FFFFFF" d="M408.9,41c-1.8-1.2-3.6-2.4-5.4-3.6c5.1,23,5,46.9-0.8,70.6c-1.4,5.9-3.2,11.7-5.2,17.3
		c2.8,4.3,5.4,8.9,7.6,13.7c4.5,9.6,7.7,20,9.6,30.6c16.7-18.2,30.4-38.1,43-60c1.7-3,4-4.9,6.6-5.9C451.4,78.9,432.6,57.3,408.9,41
		z"/>
</g>
<g id="黑色蝴蝶结">
</g>
<g id="白色蝴蝶结">
	<path fill="#FFFFFF" d="M388,542.7l-29-22.9l-21.6,13.4c-7.1-38.4,24.5-87.7,49.2-113c-0.8-0.2-2.1,0.2-2.9,0
		c-31.5,35.6-71,100.2-56.8,152.4l26.3-19.4l39.7,26.4c0,0-21.2-88.8,25.4-142.1c0.1-1.6,0.5-3.2,1.2-4.7c-0.6,0.2-1.2,0.4-1.8,0.7
		C377,471.4,388,542.7,388,542.7z"/>
	<g>
		<path fill="#FFFFFF" d="M533.6,424.8c-0.1,0.2-0.1,0.5-0.2,0.7c0,0.2-0.1,0.4-0.1,0.6c18.8,42.6,25.8,101.2,25.8,101.2l-29.6-14.8
			L505.3,539c-2.1-45.6-9.6-87.8-15.8-109.9c-1.2,1.5-6.1,2.3-7.9,1.8c-0.2-0.1,1.9,12.2,1.7,12.4c6.8,28.4,15.8,73.5,13,140.9
			l33-30.4l35.5,21.7C564.8,575.4,563.8,485.6,533.6,424.8z"/>
	</g>
	<path fill="#FFFFFF" d="M610.8,383c-0.4-7.1-1.2-14.2-2.3-21.2c-0.4-4.5-1.9-8.9-4.4-12.7c-2.6-3.8-7.2-5.2-11.2-3.5
		c-1.5-20.2-6.8-39.8-15.6-57.7c-1.5-3.8-4-7-7.2-9.2c-5.1-3-11.4-0.9-16.6,1.6c-23.8,11.2-44.6,28.6-60.7,50.6
		c-5.4-12.4-15.4-21.8-27.5-25.9c-23.8-8.1-48.9,6.2-56.2,31.9l-29.9-24.4c-13.6-11.2-29.7-23.1-46.4-19.3
		c-18.1,4-28.3,24.7-33.1,44c-0.5,3.1-1.6,6-3.3,8.5c-1.4,1.6-2.9,3-4.6,4.2c-7.9,7.7-12,19-11.2,30.6c1,11.4,3.5,22.6,7.6,33.1
		c1.3,5.2,3.8,9.8,7.3,13.6c3.2,2.5,6.9,4,10.8,4.6c20.1,4.4,40.9,2.4,59.9-5.7c3.2-1.3,6.3-3,9.3-4.9c-10.2,2.1-20.7,2.1-31-0.1
		c-2.9-0.4-5.7-1.6-8.1-3.5c-2.6-2.8-4.5-6.3-5.5-10.2c-3.1-7.9-5-16.3-5.7-24.9c-0.7-8.7,2.4-17.2,8.4-23c1.2-0.9,2.4-2,3.4-3.2
		c1.2-1.9,2.1-4.1,2.5-6.4c3.6-14.5,11.3-30,24.9-33c12.5-2.8,24.6,6.1,34.8,14.5l22.4,18.3c5.4-19.3,24.3-30,42.2-23.9
		c9.1,3.1,16.6,10.1,20.7,19.5c12.1-16.5,27.7-29.6,45.5-38c3.9-1.9,8.6-3.5,12.5-1.2c2.4,1.7,4.3,4.1,5.4,6.9
		c6.6,13.5,10.6,28.2,11.7,43.3c3-1.3,6.5-0.2,8.4,2.6c1.8,2.8,2.9,6.1,3.3,9.5c0.9,5.3,1.5,10.6,1.8,15.9c0.8,5.6-0.2,11.3-3,16.2
		c-3.9,5.5-11,6.7-17.5,7.2c0,0.1,0,0.3,0,0.4c0,0.2,0,0.3-0.1,0.5c2.4,3.2,1.1,8.7-2,11.2c-3.7,2.4-8,3.6-12.3,3.3
		c-1.3,0.1-2.6,0.1-3.9,0.2c0,0,0,0.1,0.1,0.1c1.4,2.9,2.8,5.8,4.1,8.7c0.4,0.9,0.8,1.9,1.1,2.8c8.3,0.4,16.7,0,24.9-0.4
		c5.8,0.4,11.5-1.2,16.4-4.4c4.6-3.7,6.2-12.2,1.6-16.1c8.9-0.7,18.9-2.1,24.3-9.7C610.4,398.1,611.8,390.4,610.8,383z"/>
</g>
<g id="装饰">
	<circle fill="#FFFFFF" cx="373.6" cy="336.9" r="7.9"/>
	<circle fill="#FFFFFF" cx="347.6" cy="379.3" r="7.9"/>
	<circle fill="#FFFFFF" cx="386" cy="368.5" r="7.9"/>
	<circle fill="#FFFFFF" cx="378.1" cy="402.2" r="7.9"/>
	<circle fill="#FFFFFF" cx="425.1" cy="381.3" r="7.9"/>
	<circle fill="#FFFFFF" cx="503.8" cy="385.7" r="7.9"/>
	<circle fill="#FFFFFF" cx="503.6" cy="423.7" r="7.9"/>
	
		<ellipse transform="matrix(0.1602 -0.9871 0.9871 0.1602 -17.7601 898.9255)" fill="#FFFFFF" cx="519.4" cy="459.9" rx="7.9" ry="7.9"/>
	<circle fill="#FFFFFF" cx="531.3" cy="492.5" r="7.9"/>
	<circle fill="#FFFFFF" cx="483.3" cy="359.3" r="7.9"/>
	<circle fill="#FFFFFF" cx="441.9" cy="348.3" r="7.9"/>
	<circle fill="#FFFFFF" cx="408.5" cy="427.3" r="7.9"/>
	<circle fill="#FFFFFF" cx="379.6" cy="459.9" r="7.9"/>
	<circle fill="#FFFFFF" cx="363.7" cy="499.2" r="7.9"/>
	<circle fill="#FFFFFF" cx="523.3" cy="350.6" r="7.9"/>
	<circle fill="#FFFFFF" cx="538.8" cy="323.6" r="7.9"/>
	<circle fill="#FFFFFF" cx="551.7" cy="373.3" r="7.9"/>
	<circle fill="#FFFFFF" cx="565" cy="304.9" r="7.9"/>
	<circle fill="#FFFFFF" cx="580.9" cy="344.9" r="7.9"/>
	<circle fill="#FFFFFF" cx="594.2" cy="384.2" r="7.9"/>
	<circle fill="#FFFFFF" cx="565" cy="419.4" r="7.9"/>
	<circle fill="#FFFFFF" cx="330.2" cy="423.7" r="7.9"/>
	<circle fill="#FFFFFF" cx="306.4" cy="392.2" r="7.9"/>
	<circle fill="#FFFFFF" cx="315.6" cy="352.8" r="7.9"/>
	<circle fill="#FFFFFF" cx="342.7" cy="312.9" r="7.9"/>
	<circle fill="#FFFFFF" cx="543.7" cy="408.1" r="7.9"/>
</g>
</svg>
